<svg id="Grupo_38434" data-name="Grupo 38434" xmlns="http://www.w3.org/2000/svg" xmlns:xlink="http://www.w3.org/1999/xlink" width="150" height="192.439" viewBox="0 0 150 192.439">
  <defs>
    <clipPath id="clip-path">
      <rect id="Rectángulo_11419" data-name="Rectángulo 11419" width="150" height="192.439" fill="none"/>
    </clipPath>
  </defs>
  <g id="Grupo_38433" data-name="Grupo 38433" clip-path="url(#clip-path)">
    <path id="Trazado_68736" data-name="Trazado 68736" d="M149.289,189.547A74.645,74.645,0,1,1,74.645,114.9a74.645,74.645,0,0,1,74.645,74.645" transform="translate(0 -71.752)" fill="#ffc84b"/>
    <path id="Trazado_68737" data-name="Trazado 68737" d="M74.956,378.016A80.229,80.229,0,0,1,.5,327.676a74.643,74.643,0,0,0,148.915,0,80.229,80.229,0,0,1-74.458,50.34" transform="translate(-0.311 -204.623)" fill="#ffa83a"/>
    <path id="Trazado_68738" data-name="Trazado 68738" d="M118.194,272.029a3.247,3.247,0,0,1-2.3-.954L99.584,254.768a3.257,3.257,0,1,1,4.606-4.606L120.5,266.468a3.257,3.257,0,0,1-2.3,5.56" transform="translate(-61.591 -155.622)" fill="#333"/>
    <path id="Trazado_68739" data-name="Trazado 68739" d="M101.886,272.029a3.257,3.257,0,0,1-2.3-5.56l16.307-16.307a3.257,3.257,0,1,1,4.606,4.606l-16.307,16.307a3.245,3.245,0,0,1-2.3.954" transform="translate(-61.591 -155.622)" fill="#333"/>
    <path id="Trazado_68740" data-name="Trazado 68740" d="M257.705,272.029a3.248,3.248,0,0,1-2.3-.954L239.1,254.768a3.257,3.257,0,1,1,4.606-4.606l16.307,16.307a3.257,3.257,0,0,1-2.3,5.56" transform="translate(-148.711 -155.622)" fill="#333"/>
    <path id="Trazado_68741" data-name="Trazado 68741" d="M241.4,272.029a3.257,3.257,0,0,1-2.3-5.56L255.4,250.162a3.257,3.257,0,1,1,4.606,4.606L243.7,271.075a3.248,3.248,0,0,1-2.3.954" transform="translate(-148.711 -155.622)" fill="#333"/>
    <path id="Trazado_68742" data-name="Trazado 68742" d="M209.637,370.7v14.523a8.9,8.9,0,1,0,17.8,0v-7.709a37.359,37.359,0,0,0-17.8-6.814" transform="translate(-130.911 -231.49)" fill="#ea4840"/>
    <path id="Trazado_68743" data-name="Trazado 68743" d="M122.691,385.434a3.257,3.257,0,0,1-1.723-6.023c7.828-4.87,17.977-7.561,28.576-7.577h.1c10.644,0,20.56,2.709,27.932,7.634a3.257,3.257,0,1,1-3.618,5.416c-13.149-8.784-35.375-8.758-49.545.057a3.242,3.242,0,0,1-1.717.492" transform="translate(-74.581 -232.198)" fill="#ffa83a"/>
    <path id="Trazado_68744" data-name="Trazado 68744" d="M227.441,377.514a37.362,37.362,0,0,0-17.8-6.814v7.558a37.363,37.363,0,0,1,17.8,6.814Z" transform="translate(-130.911 -231.49)" fill="#c6352f"/>
    <path id="Trazado_68745" data-name="Trazado 68745" d="M175.764,378.969a3.247,3.247,0,0,1-2.3-.954,34.312,34.312,0,0,0-48.468,0,3.257,3.257,0,1,1-4.606-4.606,40.832,40.832,0,0,1,57.68,0,3.257,3.257,0,0,1-2.3,5.56" transform="translate(-74.582 -225.734)" fill="#333"/>
    <path id="Trazado_68746" data-name="Trazado 68746" d="M156.412,46.622s0,.065-.01.193c0,.032,0,.068-.005.108s0,.073-.014.167c-.018.162-.042.35-.078.561a6.5,6.5,0,0,1-1.292,2.679c-1.507,1.927-4.171,3.615-7.658,5.055A72.83,72.83,0,0,1,134.5,59.122c-5.027,1.04-10.737,1.886-16.979,2.547-3.119.355-6.377.609-9.745.881q-2.527.194-5.141.336c-1.741.1-3.509.207-5.3.285s-3.611.137-5.452.192-3.7.1-5.589.125c-3.768.031-7.62.042-11.537-.07a206.447,206.447,0,0,1-24.117-1.862A83.583,83.583,0,0,1,38.359,58.93a29.728,29.728,0,0,1-6.008-2.509,12.125,12.125,0,0,1-2.792-2.139,6.9,6.9,0,0,1-1.147-1.6l-.217-.483c-.062-.168-.118-.342-.174-.514s-.084-.359-.122-.54l-.035-.278-.015-.139a1.638,1.638,0,0,1-.014-.222l-.006-.4c.014-.211.033-.433.062-.637.035-.18.07-.361.113-.539l.16-.515a7.246,7.246,0,0,1,.964-1.775,12.8,12.8,0,0,1,2.559-2.557A30.972,30.972,0,0,1,37.43,40.7,79.42,79.42,0,0,1,49.462,36.4q3.033-.851,6.067-1.546t6.054-1.251c4.024-.754,8.02-1.347,11.96-1.832,3.942-.466,7.825-.846,11.635-1.089q2.856-.192,5.652-.315c.96-.047,1.835-.069,2.771-.1l2.751-.067c3.636-.047,7.175-.012,10.6.133,3.423.129,6.725.4,9.893.689,3.167.314,6.195.712,9.068,1.156,2.871.46,5.588.969,8.13,1.529s4.91,1.166,7.087,1.818a58.323,58.323,0,0,1,5.936,2.082,31.867,31.867,0,0,1,4.661,2.37,13.183,13.183,0,0,1,3.188,2.729,6.7,6.7,0,0,1,1.368,2.694,5.522,5.522,0,0,1,.117.837c.011.19.016.287.016.287Zm-3.438.017a3.529,3.529,0,0,0-.078-.393,3.214,3.214,0,0,0-.748-1.2,9.625,9.625,0,0,0-2.4-1.78,24.765,24.765,0,0,0-4.158-1.774,69.721,69.721,0,0,0-12.462-2.708c-2.468-.341-5.113-.623-7.91-.846s-5.747-.41-8.83-.535c-3.081-.155-6.3-.2-9.627-.261s-6.774-.052-10.316-.007l-2.667.036-2.717.06q-2.727.06-5.516.178c-3.716.172-7.513.372-11.363.7a202.417,202.417,0,0,0-23.541,3.152,79.375,79.375,0,0,0-11.613,3.206A27.393,27.393,0,0,0,33.789,47a9.514,9.514,0,0,0-2.013,1.687,4.085,4.085,0,0,0-.617.916l-.094.226L31,50.048a.617.617,0,0,1-.041.139l-.025.385c0-.147,0-.009,0-.027v.168l.03.228.056.234.083.24a3.986,3.986,0,0,0,.6.985,9.436,9.436,0,0,0,2.039,1.809,27.468,27.468,0,0,0,5.324,2.708,57.88,57.88,0,0,0,5.82,1.924q2.962.822,5.973,1.443a158.866,158.866,0,0,0,23.9,2.9c3.909.184,7.759.291,11.527.261q2.826-.012,5.589-.087c1.841-.053,3.658-.14,5.45-.234s3.559-.206,5.3-.35,3.446-.309,5.125-.488c3.358-.341,6.587-.813,9.677-1.3,3.088-.5,6.03-1.076,8.81-1.682s5.393-1.276,7.823-1.968a73.713,73.713,0,0,0,12.159-4.466,27.48,27.48,0,0,0,3.97-2.348,9.52,9.52,0,0,0,2.2-2.141,3.115,3.115,0,0,0,.575-1.339.327.327,0,0,1,.007-.1.4.4,0,0,0,0-.1c0-.04,0-.076,0-.108v-.1Z" transform="translate(-17.378 -18.85)" fill="#e9f0f8"/>
    <path id="Trazado_68747" data-name="Trazado 68747" d="M95.5,38.162a4.817,4.817,0,1,1-5.126-4.487A4.818,4.818,0,0,1,95.5,38.162" transform="translate(-53.629 -21.022)" fill="#e9f0f8"/>
    <path id="Trazado_68748" data-name="Trazado 68748" d="M271.368,101.043a4.637,4.637,0,1,1-4.935-4.319,4.637,4.637,0,0,1,4.935,4.319" transform="translate(-163.675 -60.394)" fill="#e9f0f8"/>
    <path id="Trazado_68749" data-name="Trazado 68749" d="M159.688,54.063l-.024.177-.013.1c-.005.037-.008.067-.025.153-.029.147-.066.319-.116.51a6.006,6.006,0,0,1-1.4,2.364c-1.537,1.656-4.121,3-7.442,4.054a67.3,67.3,0,0,1-12.127,2.433c-4.708.564-10.029.9-15.826,1.018-2.9.082-5.916.063-9.037.049q-2.341-.019-4.757-.093c-1.61-.044-3.245-.084-4.9-.152s-3.334-.157-5.033-.249-3.417-.193-5.153-.321c-3.471-.266-7.017-.557-10.612-.966a190.837,190.837,0,0,1-22.051-3.6,77.343,77.343,0,0,1-11.093-3.376,27.508,27.508,0,0,1-5.334-2.779,11.206,11.206,0,0,1-2.4-2.186,6.365,6.365,0,0,1-.931-1.564l-.162-.462c-.044-.16-.082-.324-.12-.487s-.049-.337-.069-.507l-.011-.258,0-.13a1.791,1.791,0,0,1,0-.206l.026-.367c.029-.193.065-.4.107-.581.047-.163.093-.327.146-.487l.188-.462a6.7,6.7,0,0,1,1.026-1.558A11.832,11.832,0,0,1,45.1,41.979a28.638,28.638,0,0,1,5.549-2.667A73.278,73.278,0,0,1,62.056,36.3q2.858-.546,5.7-.949t5.669-.678c3.762-.38,7.487-.614,11.15-.751a208.432,208.432,0,0,1,21.115.338c3.35.241,6.6.549,9.742.951,3.14.386,6.159.891,9.051,1.407,2.89.537,5.646,1.139,8.255,1.772,2.607.648,5.067,1.329,7.363,2.042a72.418,72.418,0,0,1,11.68,4.607,29.457,29.457,0,0,1,4.1,2.545,12.171,12.171,0,0,1,2.72,2.761,6.188,6.188,0,0,1,1.049,2.587,5.127,5.127,0,0,1,.042.78c0,.176-.007.265-.007.265Zm-3.166-.253a3.412,3.412,0,0,0-.041-.368,2.978,2.978,0,0,0-.6-1.161,8.9,8.9,0,0,0-2.069-1.826A22.9,22.9,0,0,0,150.13,48.5a64.44,64.44,0,0,0-11.258-3.466c-2.245-.507-4.657-.973-7.214-1.4s-5.257-.826-8.084-1.183c-2.823-.383-5.78-.68-8.84-.993s-6.23-.577-9.493-.813l-2.458-.175-2.5-.157q-2.514-.158-5.09-.267c-3.434-.133-6.944-.244-10.512-.248A186.835,186.835,0,0,0,62.762,40.86,73.315,73.315,0,0,0,51.824,42.9a25.314,25.314,0,0,0-5.02,1.924,8.792,8.792,0,0,0-1.985,1.395,3.748,3.748,0,0,0-.64.8l-.1.2-.081.2a.578.578,0,0,1-.049.125l-.053.353c.012-.136,0-.008,0-.025l0,.051-.008.1.01.212.033.22.059.227a3.659,3.659,0,0,0,.476.954A8.717,8.717,0,0,0,46.2,51.459a25.375,25.375,0,0,0,4.689,2.908,53.334,53.334,0,0,0,5.207,2.225c1.774.659,3.572,1.261,5.384,1.8a146.7,146.7,0,0,0,21.77,4.538c3.583.475,7.118.874,10.589,1.141q2.6.21,5.15.357c1.7.1,3.378.157,5.034.21s3.291.088,4.9.092,3.2-.015,4.755-.048c3.117-.051,6.126-.234,9.007-.439,2.881-.222,5.633-.519,8.24-.859s5.063-.753,7.354-1.2a68.1,68.1,0,0,0,11.539-3.16,25.434,25.434,0,0,0,3.837-1.851,8.8,8.8,0,0,0,2.2-1.8,2.876,2.876,0,0,0,.634-1.187.286.286,0,0,1,.014-.091.383.383,0,0,0,.011-.088l.008-.1c.009-.118.014-.178.014-.178Z" transform="translate(-25.631 -21.106)" fill="#bac9db"/>
    <path id="Trazado_68750" data-name="Trazado 68750" d="M184.923,18.035a2.684,2.684,0,0,1-.284-.015l-9.72-1.01a2.714,2.714,0,0,1,.561-5.4l9.72,1.01a2.714,2.714,0,0,1-.277,5.414" transform="translate(-107.712 -7.241)" fill="#bac9db"/>
    <path id="Trazado_68751" data-name="Trazado 68751" d="M179.032,14.845a2.714,2.714,0,0,1-2.169-4.343l2.968-3.956.428-4.112a2.714,2.714,0,0,1,5.4.561L185.075,8.6,181.2,13.76a2.709,2.709,0,0,1-2.173,1.085" transform="translate(-110.106 0)" fill="#bac9db"/>
    <path id="Trazado_68752" data-name="Trazado 68752" d="M190.447,15.452a2.715,2.715,0,0,1-2.461-1.567l-2.727-5.844.583-5.607a2.714,2.714,0,0,1,5.4.561l-.427,4.112,2.092,4.482a2.715,2.715,0,0,1-2.457,3.863" transform="translate(-115.687 0)" fill="#bac9db"/>
    <path id="Trazado_68753" data-name="Trazado 68753" d="M362.283,65.2a2.389,2.389,0,0,1-.156-4.772l10.07-.67a2.389,2.389,0,0,1,.317,4.767l-10.07.67c-.054,0-.107.005-.161.005" transform="translate(-224.744 -37.312)" fill="#bac9db"/>
    <path id="Trazado_68754" data-name="Trazado 68754" d="M368.541,62.282a2.389,2.389,0,0,1-2.123-3.479l2.383-4.648-.291-4.375a2.388,2.388,0,1,1,4.766-.317l.379,5.695-2.987,5.825a2.388,2.388,0,0,1-2.127,1.3" transform="translate(-228.651 -29.496)" fill="#bac9db"/>
    <path id="Trazado_68755" data-name="Trazado 68755" d="M378.493,61.88a2.385,2.385,0,0,1-1.964-1.027L372.8,55.476l-.379-5.695a2.388,2.388,0,1,1,4.766-.317l.291,4.375,2.978,4.291a2.389,2.389,0,0,1-1.96,3.75" transform="translate(-232.559 -29.496)" fill="#bac9db"/>
    <path id="Trazado_68756" data-name="Trazado 68756" d="M5.418,89.473a2.162,2.162,0,0,1-.141-4.319l6.713-.447a2.162,2.162,0,1,1,.287,4.314l-6.713.446c-.049,0-.1,0-.146,0" transform="translate(-2.035 -52.894)" fill="#bac9db"/>
    <path id="Trazado_68757" data-name="Trazado 68757" d="M9.59,87.53a2.163,2.163,0,0,1-1.922-3.149l1.517-2.958L9,78.664a2.162,2.162,0,0,1,4.314-.287l.263,3.954-2.063,4.023A2.162,2.162,0,0,1,9.59,87.53" transform="translate(-4.639 -47.683)" fill="#bac9db"/>
    <path id="Trazado_68758" data-name="Trazado 68758" d="M16.225,87.262a2.159,2.159,0,0,1-1.778-.929L11.87,82.618l-.263-3.954a2.162,2.162,0,0,1,4.314-.287l.184,2.76L18,83.867a2.162,2.162,0,0,1-1.774,3.394" transform="translate(-7.245 -47.683)" fill="#bac9db"/>
    <path id="Trazado_68759" data-name="Trazado 68759" d="M83.525,93.516a3.539,3.539,0,1,1-3.766-3.3,3.539,3.539,0,0,1,3.766,3.3" transform="translate(-47.743 -56.334)" fill="#bac9db"/>
    <path id="Trazado_68760" data-name="Trazado 68760" d="M294.557,42.522a4.516,4.516,0,1,1-4.805-4.206,4.516,4.516,0,0,1,4.805,4.206" transform="translate(-178.308 -23.921)" fill="#bac9db"/>
    <path id="Trazado_68761" data-name="Trazado 68761" d="M232.78,391.671c0,2.558-.379,4.632-.847,4.632s-.847-2.074-.847-4.632.379-4.632.847-4.632.847,2.074.847,4.632" transform="translate(-144.305 -241.693)" fill="#c6352f"/>
  </g>
</svg>
