<svg xmlns="http://www.w3.org/2000/svg" xmlns:xlink="http://www.w3.org/1999/xlink" width="150.752" height="24.805" viewBox="0 0 150.752 24.805">
  <defs>
    <clipPath id="clip-path">
      <path id="Trazado_22084" data-name="Trazado 22084" d="M242.121,18.691,255.058,16.3V29.65l-12.937,2.389Zm-2.429-6.941A3.285,3.285,0,0,0,236.451,15V36.552h21.034a3.287,3.287,0,0,0,3.244-3.331V11.747Z" fill="none"/>
    </clipPath>
    <clipPath id="clip-path-2">
      <path id="Trazado_22085" data-name="Trazado 22085" d="M269.342,12.586V35.241a.839.839,0,1,0,1.678,0V12.586a.839.839,0,1,0-1.678,0" fill="none"/>
    </clipPath>
  </defs>
  <g id="Grupo_23579" data-name="Grupo 23579" transform="translate(-15.451 -21.747)">
    <path id="Trazado_22069" data-name="Trazado 22069" d="M278.11,25.876a.979.979,0,0,1,.705-.824,3.522,3.522,0,0,0,2.925,1.484c1.35,0,2.115-.555,2.115-1.514,0-1.095-1.14-1.351-2.43-1.651-1.5-.345-3.06-.87-3.06-2.835,0-1.649,1.425-2.819,3.495-2.819a4.387,4.387,0,0,1,2.745.8,1.282,1.282,0,0,1,.585.929,1.021,1.021,0,0,1-.72.856,3.182,3.182,0,0,0-2.6-1.306c-1.215,0-2.01.585-2.01,1.486,0,1.064.945,1.229,2.3,1.545,1.65.375,3.24,1.019,3.24,2.894,0,1.785-1.38,2.9-3.645,2.9a4.636,4.636,0,0,1-3.15-1.005,1.37,1.37,0,0,1-.5-.931" transform="translate(-221 10)" fill="#0854c4"/>
    <path id="Trazado_22070" data-name="Trazado 22070" d="M290.109,20.222a3.36,3.36,0,0,1,3.465,3.63v.12c0,.314-.1.435-.449.435H287.8a1.676,1.676,0,0,0,.03.27,2.344,2.344,0,0,0,2.43,1.965,2.375,2.375,0,0,0,2.266-1.2c.03-.031.78.1.78.735a1.446,1.446,0,0,1-.8,1.05,4.266,4.266,0,0,1-2.28.585,3.587,3.587,0,0,1-3.81-3.766,3.655,3.655,0,0,1,3.69-3.824m-.014,1.125a2.3,2.3,0,0,0-2.281,2.055h4.32a1.981,1.981,0,0,0-2.039-2.055" transform="translate(-221 10)" fill="#0854c4"/>
    <path id="Trazado_22071" data-name="Trazado 22071" d="M294.009,28.786c0-1.05.99-1.755,2.295-1.979a.839.839,0,0,1-.285-.676,1.057,1.057,0,0,1,.4-.779,2.512,2.512,0,0,1-1.89-2.4,2.874,2.874,0,0,1,3.09-2.729,3.642,3.642,0,0,1,1.725.434l.39-.689a.95.95,0,0,1,.855-.57.81.81,0,0,1,.765.629l-1.23,1.276a2.447,2.447,0,0,1,.63,1.6c0,1.515-1.29,2.625-3.12,2.625h-.27a.419.419,0,0,0-.075.255c0,.465.69.51,1.95.825,1.02.27,2.1.781,2.1,1.965,0,1.366-1.395,2.2-3.78,2.2-2.43,0-3.555-.645-3.555-2m5.895-.165c0-.57-.675-.78-1.47-.974l-.75-.181c-1.23.075-2.25.511-2.25,1.275,0,.645.735,1.005,2.16,1.005,1.455,0,2.31-.405,2.31-1.125m-.585-5.7a1.6,1.6,0,0,0-1.71-1.636,1.575,1.575,0,0,0-1.665,1.636,1.688,1.688,0,0,0,3.375,0" transform="translate(-221 10)" fill="#0854c4"/>
    <path id="Trazado_22072" data-name="Trazado 22072" d="M308.874,21.047v6.464a.715.715,0,0,1-.525.165.84.84,0,0,1-.885-.675,2.061,2.061,0,0,1-.06-.465A2.8,2.8,0,0,1,305,27.8c-1.9,0-2.775-1.29-2.775-3.09V21.047c0-.54.27-.721.645-.721h.166c.389,0,.659.165.659.721v3.479c0,1.246.631,1.98,1.725,1.98a2.168,2.168,0,0,0,1.98-1.274V21.047c0-.54.27-.721.645-.721h.165c.39,0,.66.165.66.721" transform="translate(-221 10)" fill="#0854c4"/>
    <path id="Trazado_22073" data-name="Trazado 22073" d="M315.19,21.182a.74.74,0,0,1-.45.765,1.4,1.4,0,0,0-.915-.315c-1.17,0-1.635,1.14-1.635,2.805v2.535c0,.539-.285.7-.66.7h-.165c-.39,0-.66-.165-.66-.7v-6.48a.737.737,0,0,1,.54-.165.849.849,0,0,1,.87.72,2.682,2.682,0,0,1,.06.54,1.827,1.827,0,0,1,1.83-1.365c.75,0,1.185.359,1.185.96" transform="translate(-221 10)" fill="#0854c4"/>
    <path id="Trazado_22074" data-name="Trazado 22074" d="M319.194,20.221a3.643,3.643,0,0,1,3.765,3.81A3.78,3.78,0,1,1,315.4,24a3.635,3.635,0,0,1,3.8-3.779m-.015,1.215A2.423,2.423,0,0,0,316.764,24a2.45,2.45,0,0,0,2.415,2.6,2.421,2.421,0,0,0,2.4-2.565,2.42,2.42,0,0,0-2.4-2.595" transform="translate(-221 10)" fill="#0854c4"/>
    <path id="Trazado_22075" data-name="Trazado 22075" d="M329.244,27.121l-3.48-8.774c-.06-.135.42-.5.915-.5a.919.919,0,0,1,.9.706l2.64,7.394,2.64-7.394a.9.9,0,0,1,.855-.706c.48,0,.945.361.9.5l-3.465,8.774a.857.857,0,0,1-.96.585.844.844,0,0,1-.945-.585" transform="translate(-221 10)" fill="#0854c4"/>
    <path id="Trazado_22076" data-name="Trazado 22076" d="M338.559,20.222a3.36,3.36,0,0,1,3.465,3.63v.12c0,.314-.1.435-.45.435h-5.325a1.679,1.679,0,0,0,.03.27,2.344,2.344,0,0,0,2.43,1.965,2.374,2.374,0,0,0,2.265-1.2c.03-.031.78.1.78.735a1.444,1.444,0,0,1-.795,1.05,4.269,4.269,0,0,1-2.28.585,3.587,3.587,0,0,1-3.81-3.766,3.655,3.655,0,0,1,3.69-3.824m-.015,1.125a2.3,2.3,0,0,0-2.28,2.055h4.32a1.982,1.982,0,0,0-2.04-2.055" transform="translate(-221 10)" fill="#0854c4"/>
    <path id="Trazado_22077" data-name="Trazado 22077" d="M350.064,23.342v3.63c0,.539-.285.7-.66.7h-.165c-.39,0-.66-.165-.66-.7V23.507c0-1.245-.63-1.98-1.665-1.98a1.931,1.931,0,0,0-2.025,2.115v3.33c0,.539-.285.7-.66.7h-.165c-.39,0-.66-.165-.66-.7v-9.5a.737.737,0,0,1,.54-.165c.45,0,.945.24.945,1.275v2.954a2.71,2.71,0,0,1,2.385-1.319c1.9,0,2.79,1.319,2.79,3.12" transform="translate(-221 10)" fill="#0854c4"/>
    <path id="Trazado_22078" data-name="Trazado 22078" d="M352.659,17.222a.863.863,0,1,1-.9.87.813.813,0,0,1,.9-.87m-.78,3.825c0-.54.285-.721.675-.721h.15c.39,0,.66.165.66.721v5.925c0,.539-.27.7-.66.7h-.15c-.39,0-.675-.165-.675-.7Z" transform="translate(-221 10)" fill="#0854c4"/>
    <path id="Trazado_22079" data-name="Trazado 22079" d="M358.584,20.222a3.607,3.607,0,0,1,2.355.75,1.791,1.791,0,0,1,.735,1.245c0,.614-.84.734-.885.659a2.139,2.139,0,0,0-2.175-1.409A2.389,2.389,0,0,0,356.244,24a2.4,2.4,0,0,0,2.37,2.566,2.154,2.154,0,0,0,2.175-1.41c.045-.076.885.03.885.674a1.774,1.774,0,0,1-.75,1.231,3.562,3.562,0,0,1-2.34.75A3.648,3.648,0,0,1,354.834,24a3.649,3.649,0,0,1,3.75-3.779" transform="translate(-221 10)" fill="#0854c4"/>
    <path id="Trazado_22080" data-name="Trazado 22080" d="M369.594,21.047v6.464a.718.718,0,0,1-.526.165.838.838,0,0,1-.884-.675,2.061,2.061,0,0,1-.06-.465,2.8,2.8,0,0,1-2.4,1.26c-1.9,0-2.775-1.29-2.775-3.09V21.047c0-.54.271-.721.646-.721h.165c.389,0,.659.165.659.721v3.479c0,1.246.631,1.98,1.725,1.98a2.169,2.169,0,0,0,1.981-1.274V21.047c0-.54.269-.721.644-.721h.166c.389,0,.66.165.66.721" transform="translate(-221 10)" fill="#0854c4"/>
    <path id="Trazado_22081" data-name="Trazado 22081" d="M371.484,26.972v-9.5a.771.771,0,0,1,.54-.165c.465,0,.945.24.945,1.275v8.385c0,.539-.27.7-.66.7h-.15c-.39,0-.675-.165-.675-.7" transform="translate(-221 10)" fill="#0854c4"/>
    <path id="Trazado_22082" data-name="Trazado 22082" d="M379.3,23.281h.2v-.149a1.568,1.568,0,0,0-1.785-1.695,2.178,2.178,0,0,0-2.069,1.229c0,.016-.916,0-.916-.72a1.314,1.314,0,0,1,.495-.9,3.83,3.83,0,0,1,2.6-.825c2.04,0,3.15,1.05,3.15,2.88v4.424c0,.076-.27.165-.54.165a.8.8,0,0,1-.855-.66,2.216,2.216,0,0,1-.06-.5,3.119,3.119,0,0,1-2.6,1.245c-1.545,0-2.46-.825-2.46-2.054,0-1.665,1.59-2.385,4.845-2.446m.2.93-.4.016c-2.1.075-3.18.464-3.18,1.439,0,.646.51,1.05,1.365,1.05a2.021,2.021,0,0,0,2.22-1.949Z" transform="translate(-221 10)" fill="#0854c4"/>
    <path id="Trazado_22083" data-name="Trazado 22083" d="M387.2,21.182a.74.74,0,0,1-.45.765,1.4,1.4,0,0,0-.915-.315c-1.17,0-1.635,1.14-1.635,2.805v2.535c0,.539-.285.7-.66.7h-.165c-.39,0-.66-.165-.66-.7v-6.48a.737.737,0,0,1,.54-.165.849.849,0,0,1,.87.72,2.682,2.682,0,0,1,.06.54,1.827,1.827,0,0,1,1.83-1.365c.75,0,1.185.359,1.185.96" transform="translate(-221 10)" fill="#0854c4"/>
    <g id="Grupo_23576" data-name="Grupo 23576" transform="translate(-221 10)">
      <g id="Grupo_23575" data-name="Grupo 23575" clip-path="url(#clip-path)">
        <rect id="Rect치ngulo_7304" data-name="Rect치ngulo 7304" width="32.671" height="33.2" transform="translate(232.256 7.548)" fill="#0854c4"/>
      </g>
    </g>
    <g id="Grupo_23578" data-name="Grupo 23578" transform="translate(-221 10)">
      <g id="Grupo_23577" data-name="Grupo 23577" clip-path="url(#clip-path-2)">
        <rect id="Rect치ngulo_7305" data-name="Rect치ngulo 7305" width="10.069" height="32.724" transform="translate(265.146 7.552)" fill="#0854c4"/>
      </g>
    </g>
  </g>
</svg>
