<svg width="215" height="26" viewBox="0 0 215 26" fill="none" xmlns="http://www.w3.org/2000/svg">
<g clip-path="url(#clip0_7967_80740)">
<path d="M58.1162 14.7652C58.1162 18.6215 61.1318 21.0239 64.2121 21.0263C66.0444 21.0263 67.1846 20.7365 67.8456 20.1808V18.0371C66.891 18.4749 65.8489 18.6887 64.7989 18.6622C62.9019 18.6622 61.3737 17.6083 61.1246 15.9053L61.1031 15.7544H63.3211C65.4049 15.7544 66.8732 15.5628 67.8001 15.0933C68.7271 14.6238 69.1247 13.9125 69.1295 12.7628C69.1295 9.76872 66.7606 7.91481 64.1881 7.91241C60.6408 7.91481 58.1282 10.528 58.1162 14.7652ZM65.7402 10.8298C65.9714 11.0143 66.1555 11.2509 66.2775 11.5203C66.3995 11.7897 66.4559 12.0841 66.442 12.3795C66.4566 12.6257 66.3845 12.8691 66.2384 13.0677C66.0923 13.2663 65.8813 13.4076 65.642 13.467V13.467C65.0672 13.6706 64.145 13.752 62.648 13.752H61.1007V13.6131L61.1246 13.1819C61.1941 11.649 62.3055 10.3076 63.9079 10.3076C64.5594 10.2759 65.2033 10.4594 65.7402 10.8298Z" fill="#00ADEE"/>
<path d="M50.6787 4.67886V16.3173C50.6955 19.2706 52.1494 21.0119 55.2919 21.0263C56.6261 21.0263 57.4285 20.5808 57.759 19.8718V18.0395C57.0965 18.2937 56.389 18.4102 55.68 18.382C55.0261 18.382 54.4823 18.2143 54.1087 17.8071C53.735 17.3999 53.553 16.7915 53.553 15.9364C53.553 15.9364 52.9254 11.8646 53.553 10.4897C54.1805 9.11483 56.0704 10.4897 56.0704 10.4897C57.3015 10.4897 57.8165 9.68729 57.8213 9.09327V7.91482H53.553V4.67886H50.6787Z" fill="#00ADEE"/>
<path d="M41.1119 11.2873C41.3254 11.0285 41.5952 10.822 41.9007 10.6833C42.2063 10.5447 42.5394 10.4776 42.8747 10.4873C43.7083 10.4873 44.3909 10.7268 44.858 11.2777C45.3251 11.8286 45.5622 12.6382 45.5622 13.74V20.8083H48.4365V13.4574C48.4365 9.8765 46.0412 7.9196 43.1191 7.91241C39.2412 7.91241 37.5525 10.6262 37.543 13.2873V20.8083H40.4172V13.5029C40.4412 12.564 40.6807 11.8071 41.1119 11.2873Z" fill="#00ADEE"/>
<path d="M35.2966 4.67886H32.3936V20.8083H35.2966V4.67886Z" fill="#00ADEE"/>
<path d="M70.6553 12.801V20.8083H73.5631V13.383C73.5631 12.3866 73.7571 11.6704 74.1547 11.1962C74.5523 10.7219 75.1487 10.5088 75.8745 10.5088C76.1394 10.5083 76.4039 10.5307 76.6649 10.5758V8.22131C76.2068 8.00126 75.7022 7.89526 75.1942 7.91233C71.9391 7.90994 70.6649 10.2668 70.6553 12.801Z" fill="#00ADEE"/>
<path d="M94.2867 7.9101C90.7394 7.9101 88.2244 10.5257 88.2148 14.7652C88.2148 18.6216 91.2304 21.0216 94.3083 21.0264C96.1407 21.0264 97.2832 20.7342 97.9443 20.1809V18.0252C96.9888 18.4632 95.9459 18.677 94.8951 18.6503C92.9981 18.6503 91.47 17.5964 91.2209 15.8934L91.2017 15.7425H93.4173C95.5011 15.7425 96.9742 15.5509 97.8964 15.0814C98.8185 14.6024 99.2209 13.9006 99.2257 12.7509C99.2257 9.75921 96.8568 7.91489 94.2867 7.9101ZM95.7239 13.4646C95.149 13.6706 94.2293 13.7497 92.7298 13.7497H91.1873V13.6131L91.2065 13.182C91.2783 11.6491 92.3873 10.3077 93.9873 10.3077C94.6353 10.2723 95.2768 10.4516 95.8125 10.8179C96.0444 11.0012 96.229 11.2373 96.3511 11.5064C96.4732 11.7756 96.5291 12.07 96.5143 12.3652C96.5339 12.6117 96.4658 12.8571 96.3221 13.0583C96.1783 13.2594 95.9682 13.4033 95.7287 13.4646H95.7239Z" fill="#00ADEE"/>
<path d="M125.963 12.8011V20.8083H128.873V13.3831C128.873 12.3867 129.067 11.6705 129.467 11.1939C129.867 10.7172 130.461 10.5064 131.187 10.5088C131.452 10.5084 131.716 10.5308 131.977 10.5759V8.21899C131.517 8.00139 131.013 7.89551 130.504 7.91C127.249 7.91 125.977 10.2669 125.963 12.8011Z" fill="#00ADEE"/>
<path d="M77.9316 12.2096C77.9316 14.1258 79.1053 15.1629 81.5436 15.5342C83.5365 15.8384 83.9389 16.1857 83.9389 16.9042C83.9389 17.8384 83.2538 18.2815 81.8406 18.2815C80.473 18.2815 78.9975 17.721 78.3748 17.0839H78.267V18.5043C78.267 19.7833 79.8502 20.9689 81.9724 20.9689C85.0718 20.9689 86.7844 19.3881 86.7844 16.7342C86.7844 14.7342 85.4982 13.594 83.1053 13.1749C81.1365 12.8276 80.7939 12.5713 80.7939 11.9413C80.7939 11.1269 81.3472 10.5473 83.1053 10.5473C84.4754 10.5473 85.8 11.0575 86.4012 11.7066H86.5066V10.5233C86.5066 9.31136 85.4407 7.84787 82.8251 7.84787C79.8718 7.85745 77.9316 9.85747 77.9316 12.2096Z" fill="#00ADEE"/>
<path d="M100.533 14.2909C100.533 17.249 102.521 19.364 105.324 19.364C106.969 19.364 108.061 18.4059 108.299 17.5053V17.8071C108.299 17.9221 108.318 18.2478 108.318 18.4323C108.318 18.6167 108.339 18.9113 108.339 19.0862C108.339 20.9017 107.398 21.9604 105.324 21.9604C103.673 21.9604 102.351 21.4023 101.661 20.6119H101.534V22.0299C101.534 23.5197 103.161 24.7748 105.537 24.7748C109.261 24.7748 111.187 21.9604 111.187 18.8203C111.187 18.4011 111.163 17.7257 111.142 17.2155C111.12 16.655 111.099 15.9364 111.099 15.5173V13.3783C111.099 10.1639 109.261 7.88367 106.392 7.88367C102.67 7.89325 100.533 10.7555 100.533 14.2909ZM108.26 13.5723C108.26 15.5939 107.221 16.7676 105.774 16.7676C104.387 16.7676 103.46 15.546 103.46 13.8933C103.46 11.9915 104.588 10.6262 106.078 10.6262C107.35 10.631 108.26 11.5963 108.26 13.5699V13.5723Z" fill="#00ADEE"/>
<path d="M144.064 14.2094C144.064 10.88 142.026 7.85721 138.483 7.85721C134.675 7.85721 132.639 10.88 132.639 14.6501C132.639 17.9771 134.677 20.9783 138.22 20.9783C142.028 20.9783 144.064 17.9771 144.064 14.2094ZM135.57 14.2094C135.57 12.0536 136.464 10.4991 138.217 10.4991C140.22 10.4991 141.135 12.0513 141.135 14.6692C141.135 16.801 140.265 18.3555 138.5 18.3555C136.464 18.3459 135.57 16.7914 135.57 14.1998V14.2094Z" fill="#00ADEE"/>
<path d="M121.103 8.12317V15.455C121.103 16.3963 120.863 17.1532 120.432 17.6753C120.221 17.9351 119.953 18.1428 119.648 18.2823C119.344 18.4219 119.011 18.4896 118.677 18.4801C117.845 18.4801 117.163 18.2406 116.698 17.6873C116.233 17.134 115.996 16.322 115.996 15.2154V8.12317H113.122V15.5077C113.122 19.1005 115.517 21.0646 118.423 21.0718C122.286 21.0718 123.972 18.3508 123.98 15.6777V8.12317H121.103Z" fill="#00ADEE"/>
<path d="M0.00030937 4.315V24.2529H19.5262C19.9272 24.2479 20.3232 24.1639 20.6917 24.0058C21.0601 23.8477 21.3938 23.6184 21.6737 23.3313C21.9535 23.0441 22.174 22.7046 22.3226 22.3321C22.4711 21.9597 22.5448 21.5616 22.5394 21.1607V1.22516H3.00392C2.60381 1.23078 2.20872 1.31517 1.84123 1.4735C1.47373 1.63183 1.14102 1.861 0.862097 2.14792C0.583177 2.43485 0.363512 2.77391 0.215645 3.14574C0.0677774 3.51757 -0.00539268 3.91489 0.00030937 4.315V4.315ZM5.26982 7.66833L17.2747 5.44795V17.8361L5.26263 20.0589L5.26982 7.66833Z" fill="#0855C4"/>
</g>
<rect x="153.668" y="0.994629" width="1.20054" height="24.0107" fill="#0855C4"/>
<path d="M165.793 19.1C166.573 19.76 167.973 20.28 169.973 20.28C173.373 20.28 175.273 18.78 175.273 16.2C175.273 13.76 173.233 12.8 170.893 12.28C169.293 11.92 168.133 11.76 168.133 10.64C168.133 9.7 168.973 9.12 170.373 9.12C171.753 9.12 173.053 9.8 173.813 10.7C173.873 10.76 174.973 10.08 174.973 9.16C174.973 8.68 174.693 8.16 174.073 7.74C173.333 7.2 172.093 6.78 170.353 6.78C167.233 6.78 165.313 8.36 165.313 10.76C165.313 13.42 167.433 14.18 169.493 14.64C171.013 14.98 172.313 15.22 172.313 16.38C172.313 17.38 171.493 17.94 169.953 17.94C168.373 17.94 166.893 17.12 166.113 16.2C166.013 16.1 164.993 16.84 164.993 17.66C164.993 18.14 165.233 18.66 165.793 19.1ZM183.2 20.28C187.1 20.28 189.86 17.48 189.86 13.52C189.86 9.56 187.12 6.78 183.22 6.78C179.34 6.78 176.54 9.6 176.54 13.54C176.54 17.5 179.28 20.28 183.2 20.28ZM183.22 17.66C181 17.66 179.48 15.98 179.48 13.52C179.48 11.04 180.98 9.4 183.2 9.4C185.4 9.4 186.94 11.1 186.94 13.54C186.94 16 185.42 17.66 183.22 17.66ZM191.955 20.14C192.575 20.14 193.195 19.8 193.555 18.78L194.355 16.72H199.055L199.835 18.74C200.235 19.8 200.895 20.14 201.535 20.14C202.415 20.14 203.235 19.46 203.135 19.22L198.635 7.82C198.455 7.28 198.075 6.94 196.735 6.94C195.395 6.94 194.975 7.28 194.795 7.82L190.395 19.24C190.315 19.5 191.115 20.14 191.955 20.14ZM194.915 14.5L196.675 9.8L198.435 14.5H194.915ZM206.396 18.74C206.396 19.62 206.816 20.08 207.616 20.08H208.036C208.876 20.08 209.356 19.62 209.356 18.74V9.64H212.216C213.116 9.64 213.576 9.2 213.576 8.38V8.28C213.576 7.48 213.116 7.06 212.216 7.06H203.476C202.596 7.06 202.116 7.48 202.116 8.28V8.38C202.116 9.2 202.596 9.64 203.476 9.64H206.396V18.74Z" fill="#0855C4"/>
<defs>
<clipPath id="clip0_7967_80740">
<rect width="144.064" height="23.5497" fill="white" transform="translate(0 1.22516)"/>
</clipPath>
</defs>
</svg>
