<?xml version="1.0" standalone="no"?>
<!DOCTYPE svg PUBLIC "-//W3C//DTD SVG 20010904//EN"
 "http://www.w3.org/TR/2001/REC-SVG-20010904/DTD/svg10.dtd">
<svg version="1.0" xmlns="http://www.w3.org/2000/svg"
 width="512.000000pt" height="512.000000pt" viewBox="0 0 512.000000 512.000000"
 preserveAspectRatio="xMidYMid meet">
<metadata>
Created by potrace 1.14, written by Peter Selinger 2001-2017
</metadata>
<g transform="translate(0.000000,512.000000) scale(0.100000,-0.100000)"
fill="#000000" stroke="none">
<path d="M545 5105 c-91 -20 -142 -41 -221 -91 -79 -49 -152 -116 -193 -179
-14 -22 -29 -42 -32 -45 -16 -13 -68 -143 -82 -205 -15 -63 -17 -292 -17
-2328 l0 -2257 2252 0 c2188 0 2255 1 2333 19 149 36 257 100 360 213 68 76
138 212 158 313 13 60 15 396 16 2323 l1 2252 -2257 -1 c-1841 -1 -2269 -3
-2318 -14z m3380 -2291 c0 -747 -1 -1366 -3 -1375 -3 -12 -28 -20 -100 -32
-53 -9 -108 -19 -122 -22 -14 -3 -50 -9 -80 -15 -30 -6 -66 -12 -80 -15 -13
-3 -42 -7 -64 -11 -22 -3 -43 -7 -46 -9 -3 -1 -27 -6 -55 -9 -27 -4 -57 -9
-66 -12 -10 -2 -30 -7 -45 -9 -72 -11 -102 -16 -144 -25 -25 -5 -110 -21 -190
-35 -194 -34 -228 -40 -315 -56 -70 -13 -52 -10 -270 -49 -93 -17 -183 -33
-200 -36 -16 -2 -37 -7 -45 -9 -8 -2 -33 -6 -55 -10 -22 -3 -89 -15 -150 -26
-212 -39 -271 -49 -460 -83 -104 -19 -201 -36 -215 -38 l-25 -3 0 1365 c-1
751 1 1370 3 1376 3 11 21 15 117 31 17 2 140 25 275 49 135 25 333 61 440 80
107 19 206 37 220 40 14 3 124 23 245 45 121 22 254 46 295 54 41 7 91 16 110
20 62 10 144 25 166 29 12 2 37 7 55 10 55 9 89 16 169 31 41 8 91 17 110 20
70 12 96 16 136 25 22 5 58 12 80 15 21 3 93 16 159 28 66 13 127 23 135 22
13 -2 15 -170 15 -1361z"/>
</g>
</svg>
